<svg xmlns="http://www.w3.org/2000/svg" width="140" height="34" fill="none"><g clip-path="url(#a)"><path fill="url(#b)" d="M0 16.417v8.241a2.713 2.713 0 0 0 2.723 2.704h7.347v-14.61L0 16.417Z"/><path fill="url(#c)" d="m10.49 12.752 3.597 5.364v9.246l-3.597-4.906v-9.704Z"/><path fill="url(#d)" d="M14.507 10.378v16.984h10.075l-.005-20.648-10.07 3.664Z"/><path fill="url(#e)" d="m24.997 6.714 4.095 7.061v13.587l-4.093-7.264-.002-13.384Z"/><path fill="url(#f)" d="M29.512 4.151v23.21h8.677a2.713 2.713 0 0 0 2.722-2.703V0l-11.4 4.151Z"/><path fill="url(#g)" d="M50.016 7.42h9.705c2.205 0 3.97.613 5.264 1.87 1.323 1.226 1.97 2.862 1.97 4.877 0 2.074-.676 3.71-2.03 4.965-1.322 1.256-3.146 1.87-5.41 1.87h-4.647v6.321h-4.852V7.42Zm4.852 9.551h4.294c1.882 0 3.03-1.08 3.03-2.746 0-1.606-1.177-2.687-3.03-2.687h-4.294v5.433Z"/><path fill="url(#h)" d="M73.2 4.499v17.497c0 .788.56 1.285 1.412 1.285.353 0 .912-.146 1.706-.41l.735 3.651c-1.264.614-2.41.906-3.47.906-3.058 0-5.088-2.045-5.088-5.082V4.498h4.706Z"/><path fill="url(#i)" d="M92.063 20.856H81.241c.382 1.753 1.618 2.834 3.176 2.834 1.471 0 2.53-.556 3.147-1.695l4.176.847c-1.265 3.038-3.882 4.585-7.323 4.585-2.177 0-4.03-.73-5.529-2.16-1.5-1.461-2.265-3.33-2.265-5.609 0-2.249.765-4.118 2.265-5.579 1.5-1.46 3.352-2.19 5.558-2.19 2.147 0 3.941.7 5.382 2.132 1.442 1.431 2.206 3.3 2.235 5.637v1.198ZM81.33 17.993h6.088c-.441-1.518-1.559-2.307-2.97-2.307a3.252 3.252 0 0 0-3.118 2.308Z"/><path fill="url(#j)" d="m104.515 12.24-.206 4.673h-.853c-3.382 0-5.088 1.84-5.088 5.491v4.95h-4.705V11.88h4.706v3.25c1.205-2.015 2.911-3.008 5.087-3.008.382 0 .735.029 1.059.117Z"/><path fill="url(#k)" d="M121.416 4.499V26.99h-4.706v-1.256c-1.177 1.138-2.705 1.694-4.588 1.694-2 0-3.706-.73-5.117-2.161-1.383-1.46-2.089-3.33-2.089-5.608 0-2.25.706-4.119 2.089-5.58 1.411-1.46 3.117-2.19 5.117-2.19 1.882 0 3.411.555 4.588 1.694V4.5h4.706Zm-5.795 17.905c.736-.73 1.089-1.635 1.089-2.745 0-1.081-.353-1.987-1.089-2.717-.705-.73-1.558-1.08-2.529-1.08-2.088 0-3.559 1.577-3.559 3.797 0 2.249 1.471 3.797 3.559 3.797.971 0 1.824-.35 2.529-1.052Z"/><path fill="url(#l)" d="m140 11.891-9.575 22.11h-5.087l3.264-7.507-6.299-14.603h5.059l3.68 8.995 3.899-8.995H140Z"/></g><defs><linearGradient id="b" x1="0" x2="43.95" y1="0" y2="6.36" gradientUnits="userSpaceOnUse"><stop stop-color="#2D8DFE"/><stop offset="1" stop-color="#0E77F1"/></linearGradient><linearGradient id="c" x1="0" x2="43.95" y1="0" y2="6.36" gradientUnits="userSpaceOnUse"><stop stop-color="#2D8DFE"/><stop offset="1" stop-color="#0E77F1"/></linearGradient><linearGradient id="d" x1="0" x2="43.95" y1="0" y2="6.36" gradientUnits="userSpaceOnUse"><stop stop-color="#2D8DFE"/><stop offset="1" stop-color="#0E77F1"/></linearGradient><linearGradient id="e" x1="0" x2="43.95" y1="0" y2="6.361" gradientUnits="userSpaceOnUse"><stop stop-color="#2D8DFE"/><stop offset="1" stop-color="#0E77F1"/></linearGradient><linearGradient id="f" x1="0" x2="43.95" y1="0" y2="6.36" gradientUnits="userSpaceOnUse"><stop stop-color="#2D8DFE"/><stop offset="1" stop-color="#0E77F1"/></linearGradient><linearGradient id="g" x1="140" x2="50.016" y1="19.249" y2="19.25" gradientUnits="userSpaceOnUse"><stop stop-color="#141414"/><stop offset=".484" stop-color="#2B3C50"/><stop offset="1" stop-color="#141414"/></linearGradient><linearGradient id="h" x1="140" x2="50.016" y1="19.25" y2="19.25" gradientUnits="userSpaceOnUse"><stop stop-color="#141414"/><stop offset=".484" stop-color="#2B3C50"/><stop offset="1" stop-color="#141414"/></linearGradient><linearGradient id="i" x1="140" x2="50.016" y1="19.25" y2="19.25" gradientUnits="userSpaceOnUse"><stop stop-color="#141414"/><stop offset=".484" stop-color="#2B3C50"/><stop offset="1" stop-color="#141414"/></linearGradient><linearGradient id="j" x1="140" x2="50.016" y1="19.25" y2="19.25" gradientUnits="userSpaceOnUse"><stop stop-color="#141414"/><stop offset=".484" stop-color="#2B3C50"/><stop offset="1" stop-color="#141414"/></linearGradient><linearGradient id="k" x1="140" x2="50.016" y1="19.25" y2="19.25" gradientUnits="userSpaceOnUse"><stop stop-color="#141414"/><stop offset=".484" stop-color="#2B3C50"/><stop offset="1" stop-color="#141414"/></linearGradient><linearGradient id="l" x1="140" x2="50.016" y1="19.25" y2="19.25" gradientUnits="userSpaceOnUse"><stop stop-color="#141414"/><stop offset=".484" stop-color="#2B3C50"/><stop offset="1" stop-color="#141414"/></linearGradient><clipPath id="a"><path fill="#fff" d="M0 0h140v34H0z"/></clipPath></defs></svg>