<svg xmlns="http://www.w3.org/2000/svg" width="30" height="20" fill="none"><path fill="url(#a)" d="M0 11.568v5.807c0 1.053.879 1.906 1.964 1.906h5.298V8.986L0 11.568Z"/><path fill="url(#b)" d="m7.565 8.986 2.594 3.78v6.515l-2.594-3.457V8.986Z"/><path fill="url(#c)" d="M10.463 7.313v11.968h7.266l-.004-14.55-7.262 2.582Z"/><path fill="url(#d)" d="m18.027 4.73 2.954 4.977v9.574l-2.952-5.12-.002-9.43Z"/><path fill="url(#e)" d="M21.284 2.925v16.356h6.258c1.084 0 1.963-.853 1.963-1.906V0l-8.221 2.925Z"/><defs><linearGradient id="a" x1="0" x2="31.666" y1="0" y2="4.69" gradientUnits="userSpaceOnUse"><stop stop-color="#2D8DFE"/><stop offset="1" stop-color="#0E77F1"/></linearGradient><linearGradient id="b" x1="0" x2="31.666" y1="0" y2="4.69" gradientUnits="userSpaceOnUse"><stop stop-color="#2D8DFE"/><stop offset="1" stop-color="#0E77F1"/></linearGradient><linearGradient id="c" x1="0" x2="31.666" y1="0" y2="4.69" gradientUnits="userSpaceOnUse"><stop stop-color="#2D8DFE"/><stop offset="1" stop-color="#0E77F1"/></linearGradient><linearGradient id="d" x1="0" x2="31.666" y1="0" y2="4.69" gradientUnits="userSpaceOnUse"><stop stop-color="#2D8DFE"/><stop offset="1" stop-color="#0E77F1"/></linearGradient><linearGradient id="e" x1="0" x2="31.666" y1="0" y2="4.69" gradientUnits="userSpaceOnUse"><stop stop-color="#2D8DFE"/><stop offset="1" stop-color="#0E77F1"/></linearGradient></defs></svg>